<svg xmlns="http://www.w3.org/2000/svg" xmlns:xlink="http://www.w3.org/1999/xlink" version="1.1" id="Calque_1" x="0px" y="0px" viewBox="0 0 40 40" style="enable-background:new 0 0 40 40;" xml:space="preserve">
  <style type="text/css">
    .st0 {
      fill: none;
      stroke: #000000;
      stroke-miterlimit: 10;
    }
  </style>
  <g>
    <g>
      <line class="st0" x1="54.5" y1="11.6" x2="54.5" y2="17.5" />
      <line class="st0" x1="60.2" y1="11.9" x2="54.2" y2="11.9" />
    </g>
    <g>
      <line class="st0" x1="71" y1="11.9" x2="65.1" y2="11.9" />
      <line class="st0" x1="70.8" y1="17.5" x2="70.8" y2="11.6" />
    </g>
    <g>
      <g>
        <line class="st0" x1="70.8" y1="28.4" x2="70.8" y2="22.5" />
        <line class="st0" x1="65.1" y1="28.1" x2="71" y2="28.1" />
      </g>
      <g>
        <line class="st0" x1="54.2" y1="28.1" x2="60.2" y2="28.1" />
        <line class="st0" x1="54.5" y1="22.5" x2="54.5" y2="28.4" />
      </g>
    </g>
  </g>
  <rect x="12" y="12.1" width="4.1" height="4.1" />
  <rect x="17.9" y="12.1" width="4.1" height="4.1" />
  <rect x="23.8" y="12.1" width="4.1" height="4.1" />
  <rect x="12" y="17.9" width="4.1" height="4.1" />
  <rect x="17.9" y="17.9" width="4.1" height="4.1" />
  <rect x="23.8" y="17.9" width="4.1" height="4.1" />
  <rect x="12" y="23.8" width="4.1" height="4.1" />
  <rect x="17.9" y="23.8" width="4.1" height="4.1" />
  <rect x="23.8" y="23.8" width="4.1" height="4.1" />
</svg>
